<svg width="27" height="26" viewBox="0 0 27 26" fill="none" xmlns="http://www.w3.org/2000/svg">
<path d="M11.1885 8.148C11.1885 7.40769 11.7898 6.80723 12.5317 6.80723C13.2736 6.80723 13.8748 7.40769 13.8748 8.148V13.7664L17.5991 15.4001C18.2776 15.698 18.5853 16.488 18.2867 17.1645C17.9881 17.8409 17.1964 18.148 16.5185 17.8506L12.0599 15.8946C11.5506 15.7041 11.1885 15.2141 11.1885 14.6395V8.148ZM0.774282 8.54019C0.735688 8.42618 0.711821 8.30508 0.70522 8.17891L0.502095 4.45506C0.464009 3.7178 1.03276 3.08947 1.77163 3.05197C2.51049 3.01397 3.14018 3.58149 3.17776 4.31876L3.21534 5.00789C3.76875 4.29728 4.39526 3.64648 5.0846 3.06616C5.99713 2.29798 7.03358 1.6428 8.18276 1.13153C11.4668 -0.330343 15.0306 -0.326796 18.1369 0.860435C21.2117 2.03601 23.8427 4.37044 25.3174 7.59112C25.3565 7.66104 25.3895 7.73502 25.4159 7.81204C26.8307 11.0581 26.8139 14.5681 25.6378 17.6327C24.4597 20.7008 22.1202 23.3261 18.8925 24.7971C18.6926 24.9089 18.4671 24.9674 18.238 24.9668C17.496 24.9668 16.8948 24.3669 16.8948 23.6266C16.8948 23.0439 17.2675 22.5483 17.788 22.3639C18.1785 22.185 18.5528 21.9853 18.9098 21.7659C18.9504 21.7325 18.9936 21.7011 19.0393 21.6717C19.6146 21.3008 20.1616 20.8761 20.6562 20.4029C20.6887 20.372 20.7227 20.3426 20.7577 20.3157C21.8069 19.277 22.6102 18.0325 23.1297 16.6795C24.0773 14.2118 24.0829 11.3864 22.9215 8.78899L22.921 8.78747C21.7596 6.19005 19.6512 4.3071 17.1817 3.3631C14.7087 2.41807 11.8771 2.4125 9.27405 3.57085C8.38648 3.96536 7.55907 4.48274 6.81624 5.10771C6.31553 5.5293 5.86155 5.99243 5.45784 6.49053L5.63303 6.46875C6.36885 6.37906 7.03866 6.90199 7.12854 7.63621C7.21842 8.37044 6.69436 9.0388 5.95854 9.12849L2.24846 9.58453C1.55479 9.66864 0.920024 9.20905 0.774282 8.54019ZM14.896 25.9185C15.9564 25.7999 16.4621 24.5539 15.7827 23.7315C15.4927 23.3803 15.0519 23.2075 14.6 23.2542C13.8098 23.3428 13.0192 23.3413 12.2295 23.2476C11.7552 23.1913 11.2926 23.3854 11.0011 23.7629C10.3735 24.5954 10.8716 25.7781 11.906 25.9088C12.9003 26.0274 13.9007 26.0299 14.896 25.9185ZM6.32721 23.8576C6.7294 24.1242 7.2296 24.1546 7.66378 23.9458C8.59256 23.4867 8.67788 22.2022 7.81663 21.6271C7.16612 21.1989 6.53999 20.6664 6.00831 20.0988C5.52182 19.582 4.72456 19.5288 4.1746 19.9777C4.03256 20.0939 3.91593 20.2379 3.83191 20.4009C3.7479 20.5639 3.69829 20.7423 3.68615 20.9252C3.67401 21.108 3.69961 21.2914 3.76135 21.464C3.82309 21.6366 3.91967 21.7947 4.0451 21.9286C4.72252 22.6481 5.50049 23.3139 6.32721 23.8576ZM1.0551 16.8214C1.20338 17.2998 1.59948 17.6484 2.09155 17.7426C3.08381 17.9266 3.92018 16.9907 3.62159 16.0289C3.38495 15.2688 3.24124 14.4956 3.18284 13.7016C3.11377 12.7728 2.15655 12.2007 1.30088 12.5701C0.77936 12.8057 0.465024 13.3195 0.50311 13.8911C0.57522 14.8873 0.758032 15.8673 1.0551 16.8214Z" fill="black"/>
</svg>
