<svg width="19" height="18" viewBox="0 0 19 18" fill="none" xmlns="http://www.w3.org/2000/svg">
<path d="M8.875 3.75H9.2008C11.4862 3.75 12.629 3.75 13.0627 4.16047C13.4377 4.51528 13.6038 5.03796 13.5027 5.54416C13.3855 6.12977 12.4526 6.78964 10.5867 8.10938L7.53829 10.2656C5.67243 11.5853 4.73949 12.2452 4.62238 12.8308C4.52115 13.337 4.68731 13.8597 5.06227 14.2145C5.49605 14.625 6.63877 14.625 8.9242 14.625H9.625M6.25 3.75C6.25 4.99264 5.24264 6 4 6C2.75736 6 1.75 4.99264 1.75 3.75C1.75 2.50736 2.75736 1.5 4 1.5C5.24264 1.5 6.25 2.50736 6.25 3.75ZM16.75 14.25C16.75 15.4927 15.7427 16.5 14.5 16.5C13.2573 16.5 12.25 15.4927 12.25 14.25C12.25 13.0073 13.2573 12 14.5 12C15.7427 12 16.75 13.0073 16.75 14.25Z" stroke="white" stroke-width="1.5" stroke-linecap="round" stroke-linejoin="round"/>
</svg>
