<svg width="56" height="59" viewBox="0 0 56 59" fill="none" xmlns="http://www.w3.org/2000/svg">
<path d="M50.9564 28.2917V35.7833C50.9564 41.1971 50.9564 43.9041 49.9572 45.972C49.0784 47.7908 47.6761 49.2695 45.9514 50.1963C43.9904 51.25 41.4235 51.25 36.2897 51.25H19.7897C14.6559 51.25 12.089 51.25 10.1281 50.1963C8.40332 49.2695 7.001 47.7908 6.12214 45.972C5.12305 43.9041 5.12305 41.1971 5.12305 35.7833V23.2167C5.12305 17.8028 5.12305 15.0959 6.12214 13.0281C7.001 11.2092 8.40332 9.73038 10.1281 8.80359C12.089 7.74999 14.6559 7.74999 19.7897 7.74999H29.1855M44.0814 19.8333V5.33333M37.2064 12.5833H50.9564M37.2064 29.5C37.2064 34.8387 33.1022 39.1667 28.0397 39.1667C22.9771 39.1667 18.873 34.8387 18.873 29.5C18.873 24.1612 22.9771 19.8333 28.0397 19.8333C33.1022 19.8333 37.2064 24.1612 37.2064 29.5Z" stroke="black" stroke-width="2" stroke-linecap="round" stroke-linejoin="round"/>
</svg>
