<svg width="68" height="67" viewBox="0 0 68 67" fill="none" xmlns="http://www.w3.org/2000/svg">
<path d="M35.5152 8.37501H22.3944C17.7039 8.37501 15.3587 8.37501 13.5672 9.28783C11.9914 10.0908 10.7101 11.372 9.9072 12.9478C8.99439 14.7393 8.99438 17.0846 8.99438 21.775V45.225C8.99438 49.9156 8.99439 52.2606 9.9072 54.0523C10.7101 55.6282 11.9914 56.9093 13.5672 57.7121C15.3587 58.625 17.7039 58.625 22.3944 58.625H48.0777C50.674 58.625 51.9721 58.625 53.0371 58.3397C55.9271 57.5653 58.1847 55.3077 58.9591 52.4177C59.2444 51.3527 59.2444 50.0546 59.2444 47.4583M53.6611 22.3333V5.58334M45.2861 13.9583H62.0361M29.9319 23.7292C29.9319 26.8128 27.4321 29.3125 24.3486 29.3125C21.265 29.3125 18.7652 26.8128 18.7652 23.7292C18.7652 20.6456 21.265 18.1458 24.3486 18.1458C27.4321 18.1458 29.9319 20.6456 29.9319 23.7292ZM42.4665 33.2714L18.8522 54.739C17.5239 55.9467 16.8598 56.5502 16.8011 57.0734C16.7502 57.5268 16.924 57.9762 17.2666 58.2774C17.6619 58.625 18.5594 58.625 20.3545 58.625H46.5591C50.5765 58.625 52.5854 58.625 54.1633 57.95C56.144 57.1027 57.7221 55.5246 58.5694 53.5439C59.2444 51.966 59.2444 49.9572 59.2444 45.9397C59.2444 44.5877 59.2444 43.9118 59.0967 43.2826C58.9108 42.4914 58.5548 41.7505 58.0532 41.1112C57.654 40.6026 57.1261 40.1802 56.0705 39.336L48.2614 33.0888C47.205 32.2435 46.6769 31.8208 46.0951 31.6717C45.5823 31.5403 45.0429 31.5573 44.5393 31.7209C43.9681 31.9062 43.4676 32.3613 42.4665 33.2714Z" stroke="black" stroke-width="2" stroke-linecap="round" stroke-linejoin="round"/>
</svg>
