<svg width="40" height="15" viewBox="0 0 40 15" fill="none" xmlns="http://www.w3.org/2000/svg">
<path fill-rule="evenodd" clip-rule="evenodd" d="M14.0913 14.7842L16.1162 0.252137H19.3546L17.3285 14.7842H14.0913ZM29.0741 0.610374C28.4325 0.315412 27.4271 8.80653e-08 26.1715 8.80653e-08C22.9718 -0.00048109 20.7173 1.9709 20.6984 4.79566C20.6804 6.88301 22.3077 8.04842 23.5361 8.74372C24.7966 9.45539 25.2205 9.9101 25.2144 10.5462C25.2063 11.5199 24.2077 11.9652 23.2768 11.9652C21.9808 11.9652 21.2921 11.7451 20.2285 11.2025L19.8111 10.9711L19.3565 14.2243C20.1131 14.6302 21.5116 14.9817 22.9639 15C26.3681 14.9998 28.578 13.0517 28.6032 10.0352C28.6154 8.38188 27.7527 7.12408 25.8844 6.0869C24.7523 5.41421 24.0589 4.96624 24.0664 4.28537C24.0664 3.68125 24.6532 3.03551 25.9209 3.03551C26.9802 3.01506 27.747 3.29775 28.3447 3.59223L28.6351 3.75968L29.0739 0.610615L29.0741 0.610374ZM37.3786 0.265851H34.8761C34.1009 0.265851 33.5206 0.525206 33.1801 1.47144L28.3707 14.7885H31.7713C31.7713 14.7885 32.3274 12.9983 32.4533 12.6052C32.8251 12.6052 36.1285 12.6114 36.6008 12.6114C36.6978 13.12 36.9948 14.7888 36.9948 14.7888L40 14.7885L37.3788 0.265851H37.3786ZM33.3851 9.6327C33.653 8.79545 34.6753 5.57084 34.6753 5.57084C34.6564 5.60933 34.941 4.7295 35.1047 4.18384L35.3238 5.43635C35.3238 5.43635 35.9436 8.90564 36.0732 9.63294L33.3849 9.6327H33.3851ZM11.3753 0.262723L8.20478 10.1726L7.86684 8.15885C7.27673 5.83717 5.43754 3.32229 3.38159 2.06305L6.28082 14.7717L9.70721 14.7666L14.8056 0.262723H11.3753Z" fill="#191E70"/>
<path fill-rule="evenodd" clip-rule="evenodd" d="M5.26341 0.254395H0.0413079L0 0.556815C4.06273 1.75928 6.75089 4.66656 7.86679 8.15919L6.73122 1.4814C6.5353 0.561145 5.96663 0.286633 5.26341 0.254395Z" fill="#F7B600"/>
</svg>
